<svg xmlns="http://www.w3.org/2000/svg" viewBox="0 0 24 24">
  <path d="M12 2C6.477 2 2 6.589 2 12.253c0 4.527 2.865 8.369 6.839 9.725.5.095.683-.222.683-.494 0-.244-.009-.89-.014-1.747-2.782.62-3.369-1.375-3.369-1.375-.455-1.186-1.11-1.502-1.11-1.502-.908-.636.069-.623.069-.623 1.004.072 1.532 1.057 1.532 1.057.892 1.567 2.341 1.115 2.91.853.091-.663.35-1.115.636-1.371-2.221-.259-4.555-1.139-4.555-5.069 0-1.12.39-2.036 1.029-2.753-.103-.26-.446-1.303.098-2.716 0 0 .84-.276 2.75 1.052A9.385 9.385 0 0 1 12 6.944c.85.004 1.705.118 2.504.346 1.909-1.328 2.747-1.052 2.747-1.052.546 1.413.203 2.456.1 2.716.64.717 1.028 1.633 1.028 2.753 0 3.94-2.337 4.807-4.566 5.061.359.318.679.944.679 1.902 0 1.372-.012 2.478-.012 2.814 0 .274.18.594.688.493C19.138 20.618 22 16.779 22 12.253 22 6.589 17.523 2 12 2Z" />
</svg>
